<?xml version="1.0" encoding="UTF-8"?>
<svg id="Layer_1" data-name="Layer 1" xmlns="http://www.w3.org/2000/svg" viewBox="0 0 343.77 234.76">
  <defs>
    <style>
      .cls-1 {
        fill: #fff;
      }
    </style>
  </defs>
  <path class="cls-1" d="M327.15,18.43c-3.52-3.67-7.47-6.87-11.71-9.49-9.4-5.85-20.23-8.94-31.3-8.94H59.63c-11.07,0-21.89,3.09-31.3,8.93-4.29,2.66-8.23,5.86-11.71,9.5C5.9,29.61,0,44.24,0,59.64v115.49c0,15.59,6.03,30.35,16.97,41.56,3.52,3.63,7.49,6.8,11.8,9.42,9.32,5.66,19.99,8.65,30.86,8.65h224.5c10.87,0,21.54-2.99,30.86-8.65,4.31-2.63,8.28-5.8,11.79-9.41,10.96-11.21,16.99-25.97,16.99-41.57V59.64c0-15.4-5.9-30.03-16.62-41.21ZM321.77,59.64v115.49c0,8.42-2.78,16.47-7.91,23.05l-80.46-80.46,80.75-80.75c4.94,6.51,7.62,14.42,7.62,22.67ZM47.7,23.93c3.82-1.29,7.81-1.93,11.93-1.93h224.5c4.12,0,8.12.65,11.94,1.93l-124.19,124.19L47.7,23.93ZM125.92,133.28l45.96,45.96,45.96-45.96,77.72,77.72c-3.67,1.17-7.49,1.76-11.43,1.76H59.63c-3.94,0-7.76-.59-11.42-1.77l77.71-77.71ZM110.36,117.72L29.9,198.18c-5.12-6.58-7.9-14.63-7.9-23.05V59.64c0-8.25,2.68-16.16,7.62-22.67l80.74,80.75Z"/>
</svg>