<?xml version="1.0" encoding="UTF-8"?>
<svg id="Layer_1" data-name="Layer 1" xmlns="http://www.w3.org/2000/svg" viewBox="0 0 291.02 214.5">
  <defs>
    <style>
      .cls-1 {
        fill: #fff;
      }
    </style>
  </defs>
  <path class="cls-1" d="M108.16,80.73v-37.63c0-7.33-2.91-14.36-8.09-19.54l-17.74-17.74c-3.72-3.72-8.77-5.82-14.04-5.82H19.86C8.89,0,0,8.89,0,19.86v47.06c0,5.27,2.09,10.32,5.82,14.04l18.39,18.39c5.04,5.04,11.89,7.88,19.02,7.88h38.41c14.65,0,26.52-11.87,26.52-26.52h0Z"/>
  <path class="cls-1" d="M291.02,214.5h-143.45c-5.27,0-10.32-2.09-14.04-5.82l-17.35-17.35c-5.12-5.12-8-12.07-8-19.31v-38.24c0-14.65,11.87-26.52,26.52-26.52h37.86c7.17,0,14.04,2.85,19.12,7.92l99.28,99.27.06.06h0Z"/>
  <path class="cls-1" d="M216.34,19.87v67.52c0,10.97-8.89,19.86-19.86,19.86h-1.52c-7.17,0-14.05-2.85-19.12-7.92l-59.58-59.59c-5.18-5.18-8.09-12.21-8.09-19.53v-.34c0-10.97,8.89-19.86,19.86-19.86h68.44c10.97,0,19.86,8.89,19.86,19.86h0Z"/>
  <path class="cls-1" d="M108.16,194.63h0c0-7.24-2.88-14.19-8-19.31l-60.2-60.2c-5.04-5.04-11.89-7.88-19.02-7.88h-1.08c-10.97,0-19.86,8.89-19.86,19.86v67.52c0,10.97,8.89,19.86,19.86,19.86h68.45c10.97,0,19.86-8.89,19.86-19.86h0Z"/>
</svg>