<?xml version="1.0" encoding="UTF-8"?>
<svg id="Layer_1" data-name="Layer 1" xmlns="http://www.w3.org/2000/svg" viewBox="0 0 321.4 328.72">
  <defs>
    <style>
      .cls-1 {
        fill: #fff;
      }
    </style>
  </defs>
  <path class="cls-1" d="M230.83,58.07c2.69,3.29-2.41,6.32-3.98,8.11.73.28,1.49.58,2.24.92,1.12-2.43,4-8.6,5.76-5.18,1.03,1.96-4.92,4.26-3.78,6.11.52.24,1.03.49,1.55.75,1.91-.56,4.07-6.37,6-7.81,2.2-1.61,5.01.84-3.68,9.03,20.2,11.18,40.42,32.87,40.42,32.87,0,0,13.15-38.03-18.54-83.81-13.34,9.92-23.9,21.43-29.38,32.22,2.17-1.25,5.27-2.73,8.23-3.1-5.03,4.97-8.22,8.35-10.21,10.63-1.03,1.18-1.73,2.62-1.94,4.19-.08.65-.15,1.29-.19,1.92.13.05.28.08.41.13,2.35-3.62,5.7-8.73,7.1-6.99Z"/>
  <path class="cls-1" d="M94.44,63.01c-.22-1.57-.91-3.01-1.94-4.19-2-2.28-5.18-5.64-10.21-10.63,2.97.36,6.06,1.85,8.23,3.1-5.48-10.8-16.04-22.3-29.38-32.22-31.68,45.78-18.54,83.81-18.54,83.81,0,0,28.85-30.94,52.04-37.94-.05-.62-.11-1.27-.19-1.92Z"/>
  <path class="cls-1" d="M133.69,103.02l-71.58-.28c-1.53-.08-1.53,2.28,0,2.19l7.21-.45.19.07c-.07.06-.11.17-.08.3,2.51,19.64,22.84,26.42,39.9,20.65,5.48-1.96,10.3-5.4,14.65-9.16.52-.43.52-1.22.04-1.68-.45-.43-1.16-.41-1.59.05-3.9,4-8.32,7.59-13.51,9.72-15.62,6.13-35.32.18-38.44-17.42,3.24,9.85,11.94,16.84,24.69,16.84,13.81,0,27.96-8.26,32.09-19.42.06.02.13.04.22.04,0,0,1.81.05,3.47.11,1.42.05,2.75.09,2.75.09,1.12.04,1.12-1.68,0-1.64Z"/>
  <path class="cls-1" d="M127.26,114.12c-3.57,4.92-8.65,8.86-14.48,11.1-.62.22-.3,1.2.32,1.01,6.2-1.81,11.92-5.46,16.2-10.47,1.19-1.38-.99-3.08-2.04-1.63Z"/>
  <path class="cls-1" d="M249.67,114.12c-3.55,4.92-8.63,8.86-14.46,11.1-.65.22-.3,1.2.32,1.01,6.19-1.81,11.91-5.46,16.2-10.47,1.16-1.38-.99-3.08-2.06-1.63Z"/>
  <path class="cls-1" d="M256.15,103.02l-71.58-.28c-1.53-.08-1.53,2.28,0,2.19l7.22-.45.17.07c-.08.06-.12.17-.11.3,2.52,19.64,22.85,26.42,39.9,20.65,5.49-1.96,10.3-5.4,14.65-9.16.5-.43.52-1.22.05-1.68-.45-.43-1.16-.41-1.59.05-3.89,4-8.33,7.59-13.51,9.72-15.63,6.15-35.4.15-38.46-17.53,3.25,9.92,11.96,16.95,24.74,16.95,13.82,0,27.96-8.26,32.1-19.42.06.02.12.04.21.04,0,0,1.81.05,3.47.11,1.42.05,2.76.09,2.76.09,1.12.04,1.12-1.68,0-1.64Z"/>
  <path class="cls-1" d="M321.15,107.12c-10.02-.54-20.09-.69-30.08.39,0,0,0,0,0,0h0c-.1-1.27.05-2.54.38-3.81,1.44-5.4,2.17-11.66,2.17-18.62,0-36.61-30.67-80.39-30.93-80.75l-.39-.54c-.9-1.25-2.58-1.68-3.98-1.03l-.62.28c-.28.13-26.05,12.67-39.15,34.26-1.14-4.02-4.5-7.29-8.48-8.49,2.6-1.08,5.55-1.16,8.32-.19l1.4.49c1.12.41,2.34.15,3.23-.62.88-.79,1.27-2,.99-3.16l-.34-1.46c-1.51-6.05-10.69-10.47-16.2-10.5-4.99,0-9.49,2.19-13.23,4.34-2.09,1.19-3.96,2.71-5.64,4.34-.17-.71-.36-1.42-.6-2.11-1.38-4.17-3.7-7.8-5.77-11.01l-3.1-4.84c-.86-1.36-2.6-1.87-4.07-1.19-1.46.67-2.19,2.33-1.72,3.87l1.66,5.48c1.44,4.77-2.11,10.41-6.37,13.49-.11.09-.24.18-.35.26-.12-1.22-.36-2.43-.71-3.64-.79-2.66-2.06-5.1-3.24-7.35-1.43-2.67-2.65-4.97-2.87-7.35l-.45-4.74c-.15-1.57-1.39-2.8-2.96-2.93-1.57-.08-2.99.92-3.37,2.47l-1.12,4.63c-.9,3.72-3.64,8.71-8.15,14.89-5.31,2.19-10.05,5.16-13.96,8.66,3.31-4,7.35-7.87,11.79-11.27l5.63-4.33c1.32-.99,1.66-2.82.8-4.21-.84-1.42-2.6-1.96-4.11-1.27l-6.43,2.97c-8.86,4.04-28.43,14.06-36.71,27.03C90.43,17.54,65.1,4.59,61.93,3.02l-.62-.28c-1.42-.62-3.05-.17-3.96,1.06l-.41.58c-.3.43-30.89,44.4-30.89,80.71,0,4.92.37,9.46,1.06,13.44.48,2.8.43,5.72-.11,8.67v.02h0c-8.9-.71-17.84-.61-26.75-.09-.37.02-.3.57.04.54,2.49-.24,4.99-.42,7.49-.52,6.38-.29,12.79-.22,19.14.48,0,.05,0,.08-.02.14-.14.76-.35,1.62-.66,2.66-.31,1.01-.67,2.09-1.16,3.27-.02.02-.08.19-.08.22-.17.38-.32.75-.47,1.14h0c-7.47.12-14.93,1.09-22.23,2.71-.15.03-.25.18-.21.33.03.14.18.23.32.19,7.82-1.91,15.03-2.87,22.03-2.99h0c-.32.77-.62,1.56-.93,2.36-.19.52-.38,1.05-.56,1.57-.32.92-.65,1.82-.95,2.73-.02.06-.04.13-.04.19-.1.29-.18.55-.27.83,0,0,0,0,0,0-5.94.35-12.05,1.18-18.57,2.37-.15.02-.25.17-.22.32s.17.24.32.21c4.88-.94,9.77-1.79,14.72-2.29,1.23-.15,2.46-.27,3.68-.36t0,0h0c-.27.84-.53,1.7-.76,2.54-.11.38-.22.75-.31,1.12-.28.99-.52,1.99-.77,2.98-.22.9-.44,1.81-.64,2.76v.02c-.23,1.09-.44,2.19-.63,3.28-.07.37-.13.74-.19,1.11-.12.7-.22,1.41-.33,2.11-.06.42-.12.82-.18,1.24-.12.93-.24,1.86-.34,2.8-.04.37-.08.75-.11,1.12-.08.79-.15,1.58-.21,2.37-.03.41-.05.82-.08,1.22-.05.74-.08,1.48-.12,2.22-.02.35-.03.72-.05,1.08-.03,1.09-.05,2.17-.05,3.26,0,4.72.33,9.48.98,14.17.15,1.12.32,2.23.51,3.33.02.17.05.35.08.52.08.56.19,1.1.3,1.57.62,3.25,1.36,6.39,2.23,9.37.22.76.44,1.51.67,2.25.15.49.3.95.45,1.42.4,1.24.81,2.43,1.23,3.57.18.49.35.96.53,1.43.15.39.31.77.46,1.16.13.34.25.68.39,1.02v.22c0,20.07,4.44,39.12,12.37,56.24,21.31,46.01,67.92,78.01,121.88,78.01h.02c53.96,0,100.57-32,121.88-78.01,7.93-17.12,12.37-36.17,12.37-56.24v-.22c.14-.34.26-.68.39-1.02.15-.39.32-.76.46-1.16.18-.47.35-.95.53-1.42.42-1.16.83-2.35,1.24-3.6.15-.46.3-.92.45-1.4.23-.74.45-1.49.67-2.25.87-2.98,1.62-6.12,2.23-9.37.12-.47.21-1,.3-1.56.02-.17.06-.35.08-.52.18-1.11.35-2.22.51-3.33.65-4.69.98-9.45.98-14.17,0-.99-.02-1.99-.05-2.98,0-.39-.03-.78-.05-1.16-.02-.59-.05-1.19-.08-1.78-.03-.49-.06-.98-.1-1.46-.03-.49-.07-.96-.11-1.44-.05-.55-.09-1.09-.15-1.63-.05-.42-.09-.83-.14-1.25-.06-.58-.13-1.16-.2-1.73-.05-.37-.1-.75-.15-1.12-.08-.6-.17-1.2-.26-1.8-.05-.35-.12-.69-.17-1.03-.16-.94-.33-1.87-.52-2.8-.1-.54-.2-1.08-.32-1.62v-.02c-.02-.12-.05-.23-.08-.35-.02-.11-.05-.22-.08-.32-.13-.59-.27-1.18-.41-1.76-.08-.36-.16-.73-.25-1.1h-.02c-.29-1.18-.61-2.33-.93-3.45-.23-.82-.47-1.65-.74-2.47,0,0,0,0,0,0,.01,0,.03,0,.04,0,7.35,0,14.66,1.17,21.83,2.69.36.07.45-.48.1-.53-7.19-1.09-14.67-2.22-21.91-2.7-.09,0-.15.02-.2.07-.07-.21-.13-.39-.2-.61,0-.06-.02-.12-.05-.19-.29-.9-.59-1.79-.92-2.69-.16-.48-.34-.95-.52-1.42-.32-.85-.62-1.69-.98-2.5h0c8.56-.16,17.15.92,25.49,2.97.15.04.3-.05.33-.21.03-.14-.07-.28-.22-.32-9.36-2.06-17.62-2.91-25.69-2.7-.1-.29-.22-.57-.33-.87-.35-.85-.72-1.69-1.08-2.53-.06-.17-.15-.32-.19-.49-.02-.08-.07-.18-.08-.28-.32-.85-.54-1.74-.62-2.6v-.22s.02,0,.04,0c2.48-.36,4.97-.62,7.46-.78,7.5-.52,15.04-.34,22.52.4.35.02.37-.52.03-.54ZM150.14,23.65h.02s0,0,0,0c.27-.39.53-.77.81-1.18,0,0,0,0,0-.02,0,0,0,0,.02,0,0,0,0,0,0,0,.12-.18.24-.35.36-.54.13-.19.26-.39.39-.59.22-.33.45-.67.67-1.01.11-.18.22-.35.34-.52.2-.31.39-.62.59-.93.23-.37.46-.74.68-1.12.17-.28.34-.56.5-.85.15-.27.3-.54.45-.81.16-.3.32-.61.49-.91.35-.69.69-1.38,1.02-2.06.11-.22.21-.45.31-.69.12-.28.23-.55.34-.82.02-.04.03-.07.05-.1.05-.1.08-.2.12-.3.16.54.35,1.07.57,1.59.15.37.31.74.48,1.11.02.05.05.09.06.14.17.36.34.72.52,1.09.25.51.51,1.01.77,1.5.13.25.27.51.4.75,1.07,2.04,2.19,4.15,2.83,6.35.08.27.15.55.21.82.05.22.1.44.14.66.02.12.04.24.06.35.07.39.12.78.15,1.17.02.15.02.29.03.44,0,.17,0,.33,0,.5v.02s.02.04,0,.06t0,.05s.02.02,0,.04c0,.08,0,.17,0,.25v.02c0,.07,0,.12,0,.18,0,.29,0,.56-.02.85-.02.22-.03.42-.06.64,0,.11,0,.22-.02.33-.02.12-.03.22-.05.33-.04.35-.09.69-.16,1.03-.03.17-.07.34-.11.52-.05.18-.09.35-.14.52v.02c-1.74.78-3.54,1.49-5.31,2.19-1.21.48-2.48.97-3.7,1.49-.73.3-1.46.62-2.19.95-.58.25-1.16.54-1.69.82h-.02c-.9.45-1.76.9-2.58,1.39-.56.32-1.1.65-1.59.99-1.16.73-2.19,1.52-3.16,2.33v-.02h0c.02-.05.05-.11.08-.16.05-.12.11-.25.18-.36.02-.02.02-.05.04-.07.03-.07.07-.14.11-.21.13-.25.26-.52.39-.77h0c.17-.37.35-.72.53-1.07.3-.59.62-1.16.93-1.73.28-.54.58-1.05.9-1.57.02-.02.02-.04.03-.06.02-.02.02-.03.03-.05.12-.21.25-.42.38-.62.12-.21.25-.42.38-.62.12-.21.25-.41.39-.61.12-.2.26-.4.39-.6.18-.28.36-.55.56-.83.38-.55.76-1.09,1.16-1.6.04-.05.08-.08.11-.13.35-.47.71-.92,1.08-1.38l.37-.46c.12-.15.25-.31.39-.45.3-.35.6-.7.91-1.03.15-.16.31-.32.45-.48.17-.18.35-.35.52-.53.12-.12.24-.25.36-.37.34-.34.67-.68,1.02-.99.05-.06.12-.12.18-.17.16-.15.32-.3.49-.44.05-.05.11-.11.17-.15.25-.22.52-.44.77-.65.15-.12.32-.25.49-.41.32-.28.66-.53,1.03-.82l1.89-1.42.45-.34.45-.35-1.66.32h-.02s-.03.02-.03.02l-1.73.35c-.22.05-.43.08-.65.13-.05,0-.11.02-.16.03-.39.08-.78.16-1.16.25-.37.08-.73.18-1.09.28-.05,0-.11.02-.16.04-.08.02-.15.04-.22.06-.12.03-.25.06-.37.1-.29.07-.57.15-.86.24-.02,0-.05,0-.07.02,0,0-.02,0-.02,0-.12.03-.24.07-.36.11-.21.06-.42.13-.62.19-.09.02-.19.05-.28.09-.25.08-.49.16-.73.25v-.02ZM291.07,180.85c-.02.07-.04.14-.06.2,0,.02-.02.05-.03.07,0,.02,0,.02-.02.04-.02.06-.06.12-.1.18-.05.08-.12.15-.18.22-.05.06-.11.12-.18.18h0c-.05.05-.1.09-.15.14-.16.13-.34.26-.55.39-.07.05-.15.1-.22.13-.06.04-.13.08-.2.12-.09.05-.19.09-.28.15,0,0-.02,0-.02,0-.03.02-.06.03-.1.05-.06.03-.12.06-.18.08v-.02h0v.02s-.02,0-.02.02h0c-.21.08-.45.18-.71.29-.23.11-.52.19-.79.3-.25.09-.52.18-.79.28-.3.1-.61.2-.93.3-.1.03-.22.06-.32.09,0,0-.02,0-.02,0-.16.05-.32.09-.49.15-.73.21-1.54.42-2.4.63-.34.08-.69.17-1.04.25-.44.1-.89.21-1.36.31-.08.02-.17.04-.25.05-.21.05-.44.09-.65.14-.25.05-.48.1-.72.15-.28.05-.57.12-.85.17-.62.12-1.26.25-1.92.37-.49.08-.99.18-1.51.26-.54.09-1.09.19-1.66.29-.19.03-.39.06-.58.09-.64.11-1.29.21-1.96.31-.97.15-1.98.3-3.03.45-.82.12-1.66.23-2.52.34-.61.08-1.23.17-1.86.25-.05,0-.11.02-.16.02-.69.08-1.39.18-2.1.26-.49.06-1,.12-1.51.18-.2.02-.4.05-.6.08-.24.02-.49.05-.72.08-.52.06-1.04.12-1.57.16-.4.05-.82.1-1.22.15-.45.05-.9.11-1.36.15l-.25.02c-.52.05-1.03.11-1.55.15-.18.02-.37.05-.56.06-.83.08-1.7.17-2.57.25-3.87.36-7.96.72-12.31,1.04-.32.02-.63.05-.95.07-.02,0-.04,0-.06,0-.58.04-1.16.08-1.74.12-.84.06-1.68.11-2.54.17-.62.05-1.26.09-1.91.13-.03.02-.05.02-.07,0h-.02c-1.31.08-2.66.17-4.02.26-.08,0-.19,0-.3.02-.69.05-1.38.09-2.06.11-1.44.09-2.9.18-4.39.24-.78.05-1.56.08-2.36.13-.64.02-1.27.06-1.92.08-1.21.06-2.41.13-3.64.17-2.45.11-4.97.22-7.5.3-.95.05-1.89.07-2.87.11-.25,0-.52.02-.77.03-.15,0-.3,0-.45.02-.24,0-.45,0-.67.02-1.25.04-2.5.07-3.77.11-.76.02-1.53.04-2.3.06-10.22.26-21.09.41-32.6.41s-22.38-.15-32.6-.41c-.78-.02-1.54-.05-2.3-.06-1.26-.04-2.51-.07-3.76-.11-.22-.02-.43-.02-.67-.02-.15,0-.3,0-.45-.02-.25,0-.52-.02-.77-.03-.97-.04-1.92-.06-2.87-.11-2.53-.08-5.05-.19-7.5-.3-1.23-.04-2.43-.11-3.64-.17-.65-.02-1.28-.06-1.92-.08-.79-.05-1.58-.08-2.36-.13-1.49-.06-2.95-.15-4.39-.24-.69-.02-1.38-.06-2.06-.11-.11-.02-.22-.02-.3-.02-1.36-.09-2.71-.18-4.02-.26h-.02s-.04.02-.07,0c-.65-.04-1.29-.08-1.91-.13-.86-.06-1.7-.11-2.54-.17-.59-.04-1.16-.08-1.74-.12-.02,0-.05,0-.06,0-.32-.02-.63-.05-.95-.07-4.34-.32-8.44-.68-12.31-1.04-.87-.08-1.74-.16-2.57-.25-.19-.02-.39-.04-.56-.06-.52-.05-1.04-.1-1.56-.15-.08,0-.16-.02-.24-.02-.46-.05-.92-.1-1.37-.15-.41-.05-.82-.09-1.22-.15-.53-.05-1.06-.1-1.57-.16-.24-.02-.49-.05-.72-.08-.21-.02-.42-.05-.62-.08-.51-.05-1.01-.12-1.5-.18-.72-.08-1.42-.18-2.1-.26-.05,0-.11-.02-.16-.02-.63-.08-1.26-.17-1.86-.25-.86-.11-1.7-.22-2.52-.34-1.06-.15-2.06-.3-3.03-.45-.67-.1-1.32-.2-1.96-.31-.19-.03-.39-.06-.58-.09-.56-.09-1.12-.19-1.66-.29-.52-.08-1.02-.18-1.51-.26-.65-.12-1.3-.25-1.92-.37-.29-.05-.58-.12-.85-.17-.25-.05-.48-.1-.72-.15-.22-.05-.45-.09-.65-.14-.08-.02-.17-.04-.25-.05-.47-.1-.92-.21-1.36-.31-.35-.08-.7-.17-1.04-.25-.86-.21-1.67-.42-2.4-.63-.16-.05-.32-.1-.49-.15,0,0,0,0-.02,0-.1-.03-.22-.06-.32-.09-.32-.1-.64-.21-.93-.3-.27-.1-.54-.19-.79-.28-.28-.11-.56-.19-.79-.3-.26-.11-.5-.22-.71-.3h0s-.02,0-.02,0v-.02h0c-.06-.02-.12-.05-.19-.08-.04-.02-.07-.04-.1-.05,0,0-.02,0-.02,0-.09-.05-.19-.1-.28-.15-.07-.04-.14-.08-.2-.12-.08-.03-.15-.08-.22-.13-.21-.12-.39-.25-.55-.39-.05-.05-.11-.08-.15-.13h0c-.07-.07-.13-.12-.18-.18-.07-.07-.13-.15-.19-.22-.04-.06-.08-.12-.1-.18-.02-.02-.02-.02-.02-.04-.02-.02-.02-.05-.03-.07-.02-.06-.05-.13-.06-.2,0-.04,0-.08,0-.12,0-.02,0-.05,0-.08,0-.06,0-.12.04-.18v-.02c0-.07.02-.11.04-.17,0,0,0-.02,0-.02.05-.12.12-.25.23-.38.1-.12.22-.23.35-.35.02,0,.03-.02.05-.03.06-.08.15-.15.25-.22.08-.06.19-.13.3-.19h0c.28-.18.59-.35.97-.54.35-.17.73-.32,1.14-.49.59-.22,1.21-.45,1.89-.67.22-.06.43-.13.65-.19.54-.17,1.09-.32,1.7-.49.45-.13.9-.24,1.39-.35.19-.06.39-.11.6-.15.05-.02.09-.02.15-.04.75-.17,1.52-.35,2.34-.52.02-.02.05-.02.07-.02.43-.08.86-.17,1.29-.25.62-.13,1.27-.26,1.92-.37.1-.02.2-.04.3-.05.29-.05.58-.11.88-.16.06-.02.13-.02.2-.04.47-.09.96-.18,1.46-.26.15-.02.32-.05.48-.08.33-.05.66-.11,1-.16.49-.08.99-.17,1.48-.23.81-.14,1.65-.26,2.5-.39.79-.12,1.61-.23,2.45-.35.65-.08,1.3-.17,1.98-.26.84-.11,1.69-.22,2.58-.32,2.58-.32,5.33-.64,8.22-.93.06,0,.13-.02.2-.02.76-.06,1.56-.14,2.36-.22,2.63-.26,5.38-.5,8.26-.73.79-.07,1.59-.13,2.41-.19,2.58-.22,5.27-.42,8.02-.59,1.08-.08,2.17-.15,3.3-.22,1.86-.12,3.77-.22,5.71-.33.79-.05,1.59-.09,2.4-.13,1.95-.11,3.93-.2,5.95-.29.95-.04,1.89-.08,2.84-.12.49-.05.97-.05,1.46-.07,1.06-.04,2.13-.08,3.2-.12.58-.02,1.14-.05,1.7-.07,1.07-.04,2.17-.08,3.27-.11,1.1-.04,2.22-.06,3.33-.11.71-.02,1.42-.04,2.13-.06,2.43-.08,4.92-.15,7.44-.19,1.76-.05,3.55-.08,5.35-.11.91-.02,1.81-.05,2.73-.05.92-.02,1.85-.02,2.8-.04.3,0,.61,0,.91-.02.93-.02,1.87-.02,2.82-.03,2.16-.03,4.34-.05,6.55-.06h.15c.56,0,1.12,0,1.69,0,2.03,0,4.07-.02,6.15-.02h.06c2.07,0,4.12,0,6.15.02.56,0,1.12,0,1.69,0h.15c2.21.02,4.4.03,6.55.06.95,0,1.89.02,2.82.03.3,0,.61,0,.91.02.95.02,1.87.02,2.8.04.92,0,1.83.02,2.73.05,1.8.02,3.59.06,5.35.11,2.52.04,5.01.11,7.44.19.72.02,1.42.04,2.13.06,1.12.05,2.23.07,3.33.11,1.09.02,2.19.07,3.27.11.56.02,1.12.05,1.7.07,1.08.04,2.15.08,3.2.12.49.02.97.02,1.46.07.95.04,1.89.08,2.84.12,2.03.09,4,.18,5.95.29.81.04,1.61.08,2.4.12,1.93.12,3.84.22,5.71.34,1.12.07,2.22.13,3.3.22,2.75.17,5.44.37,8.02.59.82.06,1.62.12,2.41.19,2.89.23,5.64.47,8.26.73.79.08,1.59.16,2.36.22l.21.02c2.88.29,5.63.62,8.21.93.89.11,1.74.22,2.58.32.68.09,1.33.18,1.98.26.84.12,1.65.23,2.45.35.85.12,1.69.25,2.5.39.49.06.99.15,1.48.23.35.05.67.11,1,.16.15.02.32.05.48.08.5.08.99.17,1.46.26.07.02.13.02.2.04.3.05.59.11.88.16.1.02.2.04.3.05.65.11,1.29.24,1.92.37.43.08.86.17,1.29.25.02,0,.05,0,.07.02.82.17,1.59.35,2.34.52.06.02.11.02.15.04.22.05.41.09.6.15.49.11.95.22,1.39.35.61.17,1.16.32,1.7.49.22.06.43.13.65.19.69.22,1.31.45,1.89.67.41.17.79.32,1.14.49.38.19.69.35.97.53h0c.11.07.22.14.3.2.11.06.19.13.25.22.02,0,.04.02.05.03.13.12.25.23.35.35.11.13.19.25.23.38,0,0,0,0,0,.02.02.06.04.1.04.17v.02c.03.06.04.12.04.18,0,.02,0,.05,0,.08,0,.04,0,.08,0,.12ZM293.63,131.7c.2.83.39,1.67.55,2.52.02.05.02.11.03.15.15.74.3,1.49.43,2.23.05.26.1.54.14.82.13.75.25,1.49.37,2.24,0,.04,0,.08.02.12.03.19.06.39.08.58,0,.02,0,.04,0,.05.02.14.04.27.06.4.09.69.18,1.39.25,2.09.05.44.1.87.15,1.31,0,.05.02.09.02.14.02.12.02.24.03.36.04.39.07.77.11,1.16.02.27.05.55.06.82,0,.08.02.18.03.27.02.21.03.42.05.62.02.3.04.6.05.9.04.72.08,1.44.12,2.16h0c0,.26.02.52.02.76v.05c.03.99.05,1.99.05,2.98,0,.5,0,1-.02,1.5,0,.19,0,.38-.02.55,0,.39-.02.77-.05,1.13h0c0,.21,0,.4,0,.59,0,.15,0,.29-.02.44v.28c0,.08-.02.18-.02.27,0,.05,0,.1-.02.15,0,.04,0,.08-.02.12,0,.24-.02.49-.02.72,0,.22-.02.45-.04.67-.03.55-.08,1.1-.12,1.65-.02.22-.04.45-.05.66-.1,1.12-.22,2.22-.35,3.33-.08.62-.16,1.24-.25,1.86-.02.19-.05.39-.08.58-.09.61-.18,1.21-.29,1.81h0c-.04.3-.08.6-.14.89-.03.2-.05.4-.1.59v.02c-.02.06-.02.13-.04.2-.02.12-.05.23-.07.35-.22,1.16-.45,2.32-.71,3.47-.07.31-.14.6-.21.89,0,.04-.02.08-.02.11-.06.25-.12.49-.18.75-.13.56-.28,1.12-.42,1.67h0s-.02.04-.02.05c-.4-.82-1.33-1.61-2.73-2.36-6.63-3.61-23.87-6.41-46.3-8.36-.04,0-.08,0-.12,0-3.44-.3-7.01-.58-10.67-.83-.1,0-.19-.02-.29-.02-2.36-.16-4.77-.32-7.21-.47-.13,0-.26-.02-.4-.02-1.22-.07-2.44-.15-3.67-.22h-.1c-1.23-.07-2.46-.14-3.7-.2-.08,0-.18,0-.26-.02-1.24-.06-2.5-.12-3.75-.18-.13,0-.27,0-.4-.02-2.53-.12-5.08-.23-7.66-.33-.15,0-.3-.02-.45-.02-2.6-.11-5.21-.2-7.86-.28-.12,0-.23,0-.35-.02-1.31-.04-2.63-.08-3.94-.12-.11,0-.22,0-.32,0-2.66-.08-5.34-.14-8.02-.2-.15,0-.31,0-.45,0-2.66-.05-5.34-.1-8.01-.14-.15,0-.31,0-.45,0-1.32-.02-2.63-.03-3.94-.05-.15,0-.28,0-.43,0-1.24,0-2.48-.02-3.72-.03h-.37c-1.28,0-2.56-.02-3.83-.02h-.75c-1.27,0-2.54,0-3.81,0h-.03c-1.27,0-2.54,0-3.81,0h-.75c-1.27,0-2.55.02-3.83.02h-.37c-1.24,0-2.48.02-3.72.03-.15,0-.29,0-.43,0-1.32.02-2.63.03-3.94.05-.15,0-.3,0-.46,0-2.67.04-5.34.08-8.01.14-.15,0-.3,0-.45,0-2.69.06-5.36.12-8.02.2-.11,0-.22,0-.32,0-1.33.04-2.63.08-3.94.12-.12,0-.23,0-.35.02-2.64.08-5.26.17-7.86.28-.15,0-.3,0-.45.02-2.58.1-5.14.21-7.66.33-.13,0-.27,0-.4.02-1.26.06-2.51.12-3.75.18-.08,0-.18,0-.26.02-1.25.06-2.48.13-3.7.2h-.1c-1.23.07-2.46.15-3.67.22-.14,0-.27.02-.41.02-2.43.15-4.84.31-7.2.47-.1,0-.2.02-.29.02-3.67.25-7.23.53-10.67.83-.04,0-.08,0-.12,0-22.43,1.95-39.67,4.74-46.3,8.36-1.41.75-2.33,1.55-2.73,2.36,0-.02-.02-.05-.02-.06h0c-.15-.55-.29-1.1-.42-1.66-.06-.25-.12-.49-.18-.75,0-.03-.02-.07-.02-.11-.07-.29-.14-.59-.21-.89-.26-1.15-.49-2.3-.71-3.47-.02-.12-.05-.23-.07-.35-.02-.06-.02-.13-.04-.2v-.02c-.05-.19-.07-.39-.11-.59-.05-.29-.09-.59-.13-.89h0c-.1-.61-.19-1.21-.28-1.82-.03-.19-.06-.39-.08-.58-.09-.62-.18-1.24-.25-1.86-.13-1.11-.25-2.21-.35-3.33-.02-.22-.04-.44-.05-.66-.05-.55-.09-1.09-.12-1.65-.02-.22-.03-.45-.04-.67,0-.24-.02-.49-.02-.72,0-.04-.02-.08-.02-.12,0-.05,0-.1-.02-.15,0-.09,0-.18-.02-.27v-.28c0-.15-.02-.29-.02-.44,0-.19,0-.39,0-.59h0c-.02-.37-.05-.75-.05-1.14-.02-.17-.02-.35-.02-.55,0-.5-.02-1-.02-1.5,0-.99.02-1.99.05-2.98v-.05c0-.25.02-.5.02-.75h0c.04-.73.08-1.45.12-2.17,0-.3.02-.6.05-.9.02-.21.03-.42.05-.62.02-.09.02-.18.03-.27.02-.27.04-.55.06-.82.04-.39.07-.77.11-1.16,0-.12.02-.24.03-.36,0-.05,0-.09.02-.14.05-.44.09-.87.15-1.31.08-.69.16-1.39.25-2.09.02-.13.04-.26.06-.4,0-.02,0-.04,0-.05.02-.19.05-.39.08-.58,0-.04.02-.08.02-.12.12-.76.24-1.52.37-2.28.05-.27.09-.53.14-.79.13-.74.28-1.49.43-2.23,0-.05.02-.09.03-.14.17-.85.35-1.69.55-2.53.19-.82.4-1.62.61-2.43.19-.69.36-1.37.56-2.06.05-.21.12-.42.18-.63.34-1.21.72-2.41,1.09-3.59h0c11.94-.16,23.88,2.2,34.95,6.77.35.14.52-.39.19-.5-12.38-4.72-23.51-6.58-35.08-6.45.22-.65.45-1.32.69-1.96.16-.45.33-.89.5-1.34.08-.23.17-.45.25-.69.13-.36.27-.73.41-1.09.07-.19.15-.39.22-.58.14-.36.29-.72.44-1.09.02-.04.03-.07.05-.11.06-.16.12-.32.19-.47.02-.03.03-.06.05-.1h0c9.86.42,19.55,2.52,30.35,6.01.14.05.29-.04.34-.18.04-.14-.05-.29-.19-.33-4.69-1.36-9.42-2.63-14.19-3.65-5.35-1.24-10.78-1.92-16.23-2.13h0c.12-.28.22-.55.33-.82.24-.61.46-1.22.65-1.83l.14-.46c.05-.15.08-.31.13-.47.02-.05.04-.12.05-.18,0-.06.02-.12.03-.18.17-.59.32-1.16.45-1.74.06-.28.12-.55.17-.83,0-.03,0-.05.02-.08.02-.09.03-.18.05-.27,0,0,0-.02,0-.03.03.03.08.05.13.05,11.52,1.39,22.83,5.06,32.76,11.11.31.19.58-.29.28-.46-2.55-1.42-5.16-2.73-7.82-3.94-8-3.57-16.51-5.88-25.15-7.24-.05,0-.09,0-.13,0,.02-.12.05-.23.06-.35.06-.4.12-.79.16-1.19.03-.19.05-.39.07-.59.03-.26.05-.52.08-.79.03-.4.06-.8.07-1.2.02-.37.02-.74.02-1.1v-.09c0-.05,0-.11,0-.16v-.26s0-.06,0-.08c0-.02,0-.04,0-.05h0s0-.02,0-.03c0,0,0-.02,0-.02h0s-.02-.02-.02-.02c.02-.02,0-.02,0-.02t.02,0h0v-.02s0,0,0,0h-.02s0-.03,0-.03c0-.07,0-.13,0-.19,0-.15,0-.32-.02-.47,0-.07,0-.15-.02-.22v-.15c0-.13,0-.26-.02-.39v-.2c0-.09-.02-.18-.03-.27,0-.02,0-.03,0-.05,0-.08-.02-.15-.04-.23,0-.02,0-.05-.02-.07,0-.07,0-.15-.02-.22-.02-.27-.05-.53-.1-.8,0-.05,0-.09-.02-.14,0-.02,0-.03,0-.05,0-.03,0-.07,0-.11,0,0,0-.02,0-.02,0-.08-.02-.15-.03-.23,0-.05-.02-.11-.02-.16-.02-.12-.04-.25-.06-.36,0-.05-.02-.12-.02-.17,0-.03-.02-.06-.02-.1s0-.08-.02-.12c0-.06-.02-.12-.03-.18-.02-.14-.05-.27-.06-.41l-.02-.14c-.02-.17-.05-.34-.07-.51,0-.02,0-.04,0-.06l-.02-.14c-.02-.12-.03-.24-.05-.37-.02-.12-.03-.25-.05-.38t0-.02v-.02h0c0-.09-.02-.18-.03-.26-.03-.25-.06-.5-.08-.75,0-.06-.02-.13-.02-.19,0-.08-.02-.17-.02-.26,0-.02,0-.02,0-.04,0-.02,0-.04,0-.06,0-.02,0-.04,0-.06-.02-.2-.03-.39-.05-.59-.02-.14-.02-.28-.04-.42-.02-.14-.02-.28-.04-.42-.02-.1-.02-.22-.02-.32v-.15c-.02-.35-.05-.69-.06-1.03,0-.05,0-.08-.02-.13,0-.05,0-.09,0-.14v-.05c-.02-.11-.02-.22-.03-.34,0-.12,0-.22,0-.34v-.06c0-.09,0-.18,0-.28-.02-.15-.02-.31-.02-.46,0-.14,0-.28,0-.42,0-.02,0-.06,0-.09,0-.06,0-.12,0-.19,0-.02,0-.03,0-.05,0-.05,0-.09.02-.15-.02-.38-.02-.75-.03-1.14,0-.18,0-.35,0-.52,0-.05,0-.11,0-.16,0-.06,0-.13,0-.2h0v-.11c0-.09,0-.18,0-.28v-.88s0-.02,0-.04h0v-.02s0,0,0,0c0-.04,0-.08,0-.12,0-.02,0-.05,0-.07,0-.22,0-.45,0-.68,0-.22,0-.45.02-.69,0-.02,0-.05,0-.07v-.03s0-.08,0-.12c0-.13,0-.26.02-.39,0-.13.02-.26.03-.41.02-.73.08-1.46.15-2.21.04-.52.11-1.02.17-1.53,0-.15.02-.32.03-.48,0-.02,0-.05,0-.07,0-.02,0-.04,0-.06,0-.12.02-.24.03-.35.02-.2.05-.4.08-.6,0-.03,0-.06.02-.09.02-.23.07-.49.11-.75,0-.04,0-.07,0-.1,0-.07.02-.14.03-.21,0-.02,0-.04,0-.06.05-.36.11-.72.16-1.07s.12-.72.18-1.09l.02-.12c.08-.46.16-.94.25-1.41.08-.47.17-.95.27-1.42.02-.08.03-.15.05-.22.02-.13.05-.26.08-.39.02-.07.03-.13.05-.19.02-.07.02-.15.05-.22.04-.19.08-.39.13-.58.05-.25.1-.49.15-.74.02-.09.05-.19.07-.28.04-.18.08-.35.12-.52.04-.17.08-.34.12-.5.05-.2.1-.4.15-.6.21-.85.42-1.71.67-2.56.07-.32.15-.62.24-.93h0c.09-.31.19-.62.28-.92.05-.18.1-.36.15-.54.1-.37.21-.73.32-1.09.08-.25.15-.51.24-.76.15-.51.32-1.02.48-1.52.25-.76.49-1.52.75-2.27.03-.1.07-.19.1-.29.28-.8.56-1.59.84-2.39.02-.04.02-.07.04-.11.12-.32.24-.64.35-.96.12-.32.24-.64.36-.95.05-.13.09-.26.15-.39.08-.22.17-.45.25-.67.13-.35.27-.71.42-1.06.22-.55.44-1.1.66-1.65.04-.11.08-.22.13-.32.09-.22.18-.45.27-.66.08-.22.18-.43.27-.65.02-.05.05-.1.07-.15.19-.48.39-.95.6-1.42.6-1.41,1.22-2.8,1.83-4.16.16-.35.32-.7.49-1.05.25-.55.5-1.08.75-1.6.25-.52.5-1.05.76-1.57.33-.69.67-1.38,1-2.05.17-.34.33-.68.51-1.01.25-.5.5-1,.75-1.49.2-.39.4-.78.59-1.16.05-.1.1-.19.15-.29.04-.08.08-.16.12-.25.21-.4.41-.79.62-1.18.19-.36.39-.72.58-1.07s.38-.7.57-1.05c.35-.65.7-1.29,1.06-1.93.36-.69.75-1.33,1.12-1.98.32-.57.62-1.13.93-1.67,0,0,0,0,0-.02.32-.54.62-1.06.93-1.56.36-.64.73-1.26,1.09-1.87,0-.02,0-.02.02-.04h0c.19-.29.36-.6.54-.89.25-.42.51-.83.75-1.22h0c.12-.21.24-.4.36-.59.59-.95,1.13-1.81,1.62-2.57h0c.06-.11.12-.21.19-.31.06-.1.13-.2.19-.3.05-.09.11-.18.17-.28,0,0,0,0,0,0,.11-.16.2-.31.3-.45.03-.05.07-.12.11-.17.02-.04.05-.08.08-.12.04-.08.08-.14.13-.2.08-.14.17-.27.25-.39.05-.07.1-.13.15-.19.08-.15.19-.28.28-.41.02-.05.05-.11.08-.15.03-.04.05-.08.08-.12,0-.02.02-.02.02-.03.08-.14.17-.26.25-.36.14.07.31.15.49.25.12.07.26.14.41.22.27.14.57.3.9.49.35.19.74.41,1.16.64.14.08.29.15.43.24.22.13.45.26.69.4.35.2.7.41,1.07.64.12.07.23.14.35.21.17.1.34.21.51.31.29.18.6.36.91.55.22.13.42.26.64.4.29.18.59.37.89.57.13.08.26.18.4.26.12.07.22.14.34.22.12.08.22.15.35.23.22.14.45.29.68.45h0c.23.16.46.32.7.48.12.08.24.16.35.24.07.05.15.1.22.15.29.2.58.4.88.61.25.17.49.35.74.52.25.18.49.35.75.54.12.08.25.18.38.28.12.09.25.19.38.28.25.18.51.37.77.56.25.19.52.39.78.59.25.19.52.39.78.61.78.6,1.57,1.24,2.36,1.89.26.21.52.43.79.66.16.14.33.28.49.42.36.32.73.63,1.09.95.12.11.24.21.36.32.35.31.69.62,1.04.94.31.28.62.57.93.86.08.06.15.14.23.22.3.28.6.58.9.87.35.34.69.68,1.02,1.02.09.08.17.18.25.26.35.36.72.73,1.06,1.1.35.37.71.75,1.05,1.12.7.77,1.39,1.56,2.07,2.37.33.39.65.78.97,1.18.33.41.66.82.97,1.23.32.42.64.84.95,1.26s.62.85.92,1.28c.5.72.99,1.46,1.46,2.22.15.22.29.45.42.69.31.49.6.99.88,1.49.15.26.3.52.45.79.14.24.27.49.39.73.19.34.36.69.53,1.03.19.35.35.69.51,1.05.12.25.24.51.35.76.08.17.16.35.23.52.1.22.19.45.29.68.18.41.34.82.5,1.24l.08.2.2.54s.02.06.03.18c0,.05.02.1.03.16,0,.06.02.12.04.2.03.15.06.32.09.5,0,.05.02.09.02.15.02.09.03.18.05.28t0,.02c.03.2.06.42.1.62,0,.12.03.23.05.35,0,.11.02.21.04.31v.02c.03.21.05.41.06.6.02.23.02.45.02.63v.18s0,.02.02.05c.02.03.03.02.06-.02h0s.03-.05.05-.08c0,0,.02-.02.02-.03.05-.07.09-.16.15-.28.02-.04.04-.08.06-.12.04-.08.08-.18.13-.28.05-.09.08-.19.14-.29.12-.27.25-.57.38-.9.06-.16.13-.32.2-.5.02-.03.02-.06.04-.09.04-.11.08-.22.12-.34.05-.12.09-.23.13-.35.04-.09.07-.19.11-.28,0-.02.02-.05.03-.08.21-.58.39-1.14.54-1.63.15-.49.32-.98.5-1.46.06-.16.12-.32.19-.49.12-.35.29-.69.46-1.02.09-.19.18-.37.29-.56.25-.49.54-.99.84-1.49.17-.26.34-.52.52-.79,0,0,0-.02.02-.03.11-.17.22-.34.35-.51.08-.12.18-.26.28-.39.23-.32.47-.65.73-.97.08-.1.17-.21.25-.32.15-.21.32-.42.5-.62.09-.12.19-.24.3-.36.19-.22.39-.45.6-.68.17-.19.35-.39.52-.58.18-.18.35-.38.53-.56.15-.16.32-.32.48-.48.08-.08.15-.16.23-.24.08-.08.15-.16.24-.24.07-.08.15-.15.22-.22.15-.15.32-.31.48-.46.08-.08.15-.15.24-.23.03-.02.05-.05.08-.08.05-.05.11-.1.17-.15.08-.08.17-.16.25-.24.06-.05.12-.11.19-.17.19-.16.38-.32.56-.49.25-.22.5-.43.75-.65.34-.31.69-.59,1.04-.88h0c.06-.06.12-.12.19-.16,0,0,.02,0,.02-.02.15-.12.29-.25.44-.35.06-.05.12-.1.19-.15.11-.08.22-.17.32-.25.11-.08.22-.17.32-.25.22-.17.43-.34.65-.51.53-.41,1.06-.81,1.61-1.19.57-.42,1.16-.83,1.74-1.23.38-.25.75-.5,1.12-.75,1.81-1.22,3.66-2.39,5.47-3.44.02,0,.02-.02.04-.02.02-.02.05-.03.08-.05.17-.12.35-.21.52-.32.02,0,.02,0,.02,0,0-.02.02-.03.03-.02.02,0,.05-.02.07-.04.27-.16.55-.32.82-.47.78-.45,1.55-.88,2.3-1.29.1-.06.2-.11.29-.16.58-.3,1.12-.61,1.66-.89.54-.28,1.06-.55,1.56-.82,0,0,0,0-.02.02-.79.73-1.59,1.48-2.36,2.25-.69.69-1.38,1.38-2.04,2.09-.33.35-.66.71-.99,1.07t-.02.02c-.32.36-.65.72-.96,1.09-.32.37-.65.75-.96,1.12-.98,1.16-1.91,2.36-2.79,3.57-.08.11-.15.22-.22.32-.21.3-.42.6-.62.89-.05.06-.08.12-.13.18-.05.07-.09.13-.13.2-.27.39-.53.79-.79,1.19-.3.46-.59.94-.87,1.42-1.13,1.89-2.11,3.83-2.89,5.79-.25.61-.48,1.2-.69,1.82-.46,1.37-.82,2.74-1.06,4.11-.06.34-.12.69-.16,1.02-.17,1.23-.24,2.46-.2,3.67v.25l.04.86h0s.21-.08.21-.08l.13-.05h.03s.08-.04.08-.04l.56-.19c.28-.1.55-.22.82-.35.15-.08.31-.15.45-.24.04-.02.08-.04.12-.06.05-.03.1-.06.15-.09.17-.1.33-.21.49-.32.02-.02.05-.03.07-.04.2-.15.4-.29.6-.45.02-.02.04-.03.06-.05.21-.16.41-.33.61-.52.28-.25.54-.52.81-.79.24-.25.48-.51.72-.77h0c.24-.27.48-.54.71-.82.18-.22.35-.43.52-.65.23-.3.45-.6.69-.9.68-.92,1.33-1.88,1.96-2.83.21-.31.42-.62.62-.93,0,0,0,0,0,0,.46-.72.92-1.4,1.37-2.04.1-.15.2-.31.31-.46.31-.45.63-.89.94-1.28.05-.05.06-.09.12-.13.29-.35.58-.71.88-1.06.26-.31.53-.61.81-.91.15-.18.32-.35.49-.52.14-.15.28-.28.42-.43.22-.24.46-.46.7-.69.11-.11.22-.22.33-.32.27-.25.54-.5.82-.75.11-.09.22-.19.33-.28.22-.18.43-.37.65-.55.08-.07.17-.14.25-.2.25-.22.52-.42.78-.62.09-.08.19-.15.29-.22.23-.18.45-.35.69-.52.25-.18.5-.36.75-.53.26-.18.53-.36.8-.54.72-.47,1.46-.92,2.23-1.36.41-.23.82-.45,1.23-.68.83-.45,1.69-.86,2.56-1.26.35-.16.72-.32,1.09-.48.52-.22,1.05-.44,1.59-.65h.02l.08.06h0c.05-.07.09-.11.13-.17,1.05-.39,2.09-.75,3.16-1.07h0s.02,0,.02,0c.14-.05.28-.1.42-.15.14-.05.28-.08.42-.12.41-.12.82-.25,1.24-.36h.03s.09-.02.14-.05h0s-.04.04-.05.05c-.04.04-.08.07-.12.11-.03.03-.06.05-.09.08l-.19.18s-.05.04-.08.06c-.1.08-.19.16-.29.27-.03.03-.07.05-.08.08l-.08.08s-.02.02-.03.02h0s0,.02,0,.02c0,.02-.02.03-.03.05l-.09.09-.02.02c-.44.41-.86.83-1.27,1.26-.45.48-.9.97-1.33,1.46h0c-.18.22-.35.42-.52.62-.04.05-.08.08-.11.13-.04.05-.08.08-.11.13-.17.21-.33.42-.49.62-.12.14-.24.28-.35.42-.05.05-.08.09-.12.14-.14.18-.28.35-.42.54-.12.16-.25.33-.38.51,0,0,0,.02-.02.02-.02.03-.05.05-.06.08-.07.07-.11.13-.13.18-.29.39-.56.77-.83,1.17-.11.14-.2.29-.3.44-.09.15-.19.3-.29.45-.31.47-.61.92-.91,1.42-.16.25-.32.5-.47.75-.05.09-.12.18-.17.28-.16.27-.32.55-.48.83-.32.54-.62,1.1-.95,1.68-.86,1.58-2.19,4.55-2.94,6.22-.08.17-.15.34-.24.51-.15.32-.32.64-.5.96h0c-.09.16-.19.32-.29.48-.15.22-.29.48-.44.75-.05.08-.09.18-.15.27-.07.12-.13.25-.2.38-.11.21-.22.42-.33.64,0,.03-.02.05-.04.08-.13.26-.26.52-.39.79-.12.28-.25.55-.37.82-.12.27-.23.53-.35.79-.08.19-.16.39-.24.57-.02.06-.05.12-.08.18-.06.12-.11.25-.16.38,0,0,0,.02,0,.02v.02s0,.02-.02.04c0,.02-.02.04-.02.06-.07.17-.14.33-.19.49-.18.48-.34.9-.46,1.26-.02.08-.05.15-.08.22.81-1.25,1.89-2.77,3.18-4.39.44-.53.89-1.08,1.37-1.63,0,0,0,0,0-.02.31-.35.63-.72.96-1.08.27-.28.54-.57.81-.85.09-.09.18-.18.27-.28h0c.27-.28.55-.55.83-.82.21-.21.42-.42.65-.62.27-.26.55-.52.84-.78.32-.28.66-.58,1-.85.3-.25.6-.49.91-.74.04-.03.08-.06.12-.09.35-.27.71-.53,1.07-.79.36-.26.73-.51,1.1-.75.02-.02.04-.02.05-.04.5-.32,1-.63,1.51-.92.04-.03.08-.05.13-.08.21-.12.42-.23.64-.35.24-.12.48-.25.72-.37.24-.12.48-.23.72-.34.64-.29,1.29-.59,1.93-.84h.02c.07-.03.13-.06.2-.09,0,0,0,0,.02,0,.12-.05.24-.11.36-.15.12-.05.25-.11.37-.15.96-.42,1.95-.8,2.91-1.17.06-.02.14-.05.21-.08,1.06-.42,2.13-.85,3.18-1.29.09-.04.19-.08.27-.12,1.05-.44,2.09-.91,3.13-1.39.03-.02.05-.02.08-.04.49-.24.99-.48,1.48-.72.49-.25.97-.52,1.45-.79.17-.1.35-.19.52-.29.97-.55,1.92-1.16,2.83-1.83.22-.16.44-.32.66-.51.22-.17.42-.34.64-.52.21-.18.42-.35.62-.54.21-.18.42-.38.62-.57.22-.21.43-.42.65-.65.15-.15.28-.31.43-.46.1-.11.2-.22.3-.33.15-.18.3-.35.44-.52.04-.04.07-.08.09-.12.17-.21.34-.42.49-.62.2-.26.39-.52.58-.79.19-.28.39-.57.57-.86,0,0,0-.02,0-.02.14-.22.27-.45.4-.68.15-.26.29-.53.43-.8.13-.28.27-.55.39-.83.06-.14.12-.28.18-.42.19-.44.35-.88.49-1.33.06-.18.12-.35.16-.53.15-.53.27-1.06.37-1.6v-.02c.03-.18.06-.36.08-.55.07-.55.1-1.11.11-1.67,0,0,0,0,0,.02.18.29.34.59.51.89,0,.02.02.02.02.04h0c.24.4.45.8.68,1.19.03.06.07.13.1.19.19.32.35.64.51.97.07.14.14.28.2.42.11.22.21.43.31.65.16.35.31.71.45,1.06.04.09.08.19.12.28.08.19.15.39.22.59.02.05.04.08.05.13.04.11.08.22.11.32.16.48.3.95.42,1.42,0,0,0,.02,0,.02.12.47.22.94.3,1.4h0c.08.47.14.93.18,1.39.09.99.08,1.95-.02,2.86-.03.31-.07.61-.13.91-.05.35-.13.69-.22,1.02-.04.15-.08.29-.13.44-.06.2-.13.39-.2.59-.08.2-.15.39-.24.58-.04.09-.08.18-.13.28-.05.1-.09.19-.14.28-.08.16-.16.33-.26.49-.03.06-.06.12-.1.18-.08.15-.18.29-.27.43-.23.37-.49.72-.76,1.06-.09.12-.19.23-.29.35-.17.2-.35.39-.52.59l-.44.44c-.06.07-.13.14-.21.21-.12.14-.27.27-.42.4-.21.19-.42.39-.64.58h-.03s-.07.05-.1.08c-.04.03-.08.07-.12.11-.02,0-.03.02-.05.03-.05.05-.11.1-.15.14-.13.13-.28.24-.43.35-.07.06-.14.12-.22.17-.03.03-.07.05-.11.08-.03.03-.08.05-.12.08-.07.06-.14.12-.22.18-.08.06-.15.12-.23.17-.19.15-.39.29-.59.42-.27.19-.52.39-.79.58,0,0-.02.02-.03.02l-.02.02c-.07.04-.13.08-.19.13-.06.05-.12.08-.19.12-.12.08-.25.17-.37.25-.08.05-.17.12-.25.17-.16.12-.32.22-.49.33,0,0,0,0,0,0-.02,0-.03.02-.05.04,0,0-.02,0-.03.02l-.03.03c-.72.49-1.48.99-2.19,1.52-.63.45-1.22.92-1.77,1.4-.2.18-.4.36-.59.55-.07.06-.13.12-.2.19-.21.2-.41.4-.6.61-.16.16-.32.33-.45.5-.07.07-.14.15-.19.22-.12.12-.22.25-.32.38-.08.09-.15.18-.22.28-.14.17-.26.34-.39.51-.39.52-.72,1.04-1.02,1.57-.12.18-.22.38-.31.56-.02.04-.05.08-.06.12-.12.25-.24.5-.35.75-.12.27-.22.54-.32.81-.09.25-.18.5-.25.75,0,.02-.02.04-.02.06-.08.25-.15.5-.19.75-.02.04-.02.08-.03.12-.05.22-.08.42-.12.64,0,.05-.02.12-.02.18-.04.24-.06.47-.08.7-.02.26-.03.52-.03.78,0,.65.06,1.29.19,1.91l.05.18c-.02-.21-.03-.42-.03-.63,0-.15,0-.3.02-.45,0-.02,0-.04,0-.06,0-.15.02-.3.05-.45.02-.17.05-.33.08-.5.03-.17.07-.33.12-.5.08-.33.18-.66.3-.99.12-.32.25-.65.4-.98.02-.05.04-.09.06-.14.08-.18.18-.36.27-.55.19-.35.39-.71.6-1.06.11-.17.22-.35.33-.52.15-.23.31-.45.46-.68.24-.33.49-.65.74-.97.33-.42.68-.83,1.02-1.21.08-.1.17-.19.26-.29.25-.28.52-.55.77-.81.08-.08.17-.17.25-.25.08-.08.16-.16.25-.24.12-.11.22-.21.32-.31.05-.05.11-.11.16-.15.16-.15.32-.28.46-.42h0c.1-.09.19-.18.29-.26.04-.03.08-.06.12-.09.15-.12.29-.25.42-.35.18-.15.34-.26.49-.37.1-.07.21-.15.32-.22.22-.15.42-.29.64-.45.14-.1.28-.19.42-.29.09-.06.19-.13.29-.2.09-.06.19-.13.29-.2,0,0,.02,0,.03-.02,0,0,0-.02.02,0h.02c1.7-.84,3.27-1.96,4.71-3.27.13-.11.25-.22.38-.35.13-.12.25-.22.38-.35,0,0,0,0,0,0,.25-.23.49-.47.72-.72.45-.45.9-.92,1.34-1.4.66-.72,1.3-1.46,1.93-2.22.62-.75,1.24-1.52,1.84-2.27h0c.56-.71,1.13-1.41,1.72-2.11.19-.23.39-.47.59-.7.39-.46.79-.92,1.19-1.37.4-.45.81-.89,1.22-1.32.21-.22.42-.43.63-.63.21-.21.42-.42.63-.62.43-.4.87-.79,1.32-1.16.22-.18.46-.37.69-.55t.02-.02c.36-.28.73-.53,1.11-.78.34-.22.68-.43,1.02-.62.42-.24.85-.48,1.28-.71,0,0,0,0,0,0,.42-.23.86-.45,1.29-.67.44-.22.89-.42,1.33-.62,1.11-.49,2.25-.92,3.4-1.2.46-.12.93-.22,1.4-.29.23-.04.47-.07.7-.1.47-.05.95-.08,1.43-.08h.02c.4,0,.83.04,1.29.11.17.03.35.06.53.1.16.03.33.07.5.12.15.04.31.08.47.12.99.28,2.03.67,3.03,1.15.25.12.51.25.75.39.19.1.38.2.56.31.19.11.36.22.53.32.12.07.24.15.35.22.22.15.45.31.66.47.22.15.42.32.62.49.17.15.32.29.48.43l.35.35c.08.09.17.18.25.28.06.07.12.14.18.22.08.11.16.21.24.32-.31-.07-.62-.13-.92-.18,0,0-.02,0-.04,0-.29-.05-.57-.09-.86-.12-.04,0-.07-.02-.11-.02-.02,0-.05,0-.08,0-.29-.03-.57-.05-.86-.07-.08,0-.17-.02-.25,0-.4-.02-.8-.02-1.2,0-.55.02-1.11.07-1.66.14-.02,0-.05,0-.07,0-.72.11-1.43.25-2.12.44-.45.12-.89.27-1.32.42,0,0,0,0,0,0-.44.15-.86.34-1.29.54h0c-.5.25-.99.51-1.47.8-1.3.79-2.56,1.7-3.77,2.74-.52.44-1.02.92-1.5,1.41-.21.21-.42.42-.62.64-.45.47-.88.97-1.29,1.49-.16.18-.32.38-.46.57-.15.19-.3.39-.45.59-.21.28-.41.58-.6.87-.19.3-.38.61-.55.92-.25.46-.49.94-.7,1.43-.08.18-.15.37-.23.55-.22.55-.41,1.12-.58,1.69h0c-.05.2-.11.39-.15.59-.08.29-.15.59-.2.89s-.11.59-.15.89l-.14.91-.1.68-.11.75.02-.03.29-.69.64-1.49,1.44-3.26c.04-.08.08-.17.12-.25.05-.08.09-.17.15-.25.13-.21.29-.42.49-.62.09-.1.19-.2.3-.3t.02,0c.12-.12.26-.22.4-.34.1-.08.2-.16.32-.25.02,0,.05-.03.07-.05.19-.13.39-.26.59-.38.32-.18.65-.36.99-.52.46-.22.94-.42,1.43-.6,1.99-.72,4.13-1.08,5.61-.95,1.73.13,3.37.94,4.62,2.15.23.22.45.45.64.69.3.37.56.76.79,1.18-1.5-.49-3.1-.69-4.68-.62-.21,0-.41.02-.62.05-1.16.11-2.31.36-3.41.77-.15.05-.29.11-.44.17-.3.12-.59.25-.87.39s-.57.29-.84.45c-.32.18-.64.39-.94.61-.35.25-.69.51-1,.79-.15.14-.32.28-.46.43h0c-.06.07-.12.13-.18.19l-.05.05c-.22.22-.42.45-.62.69-.39.45-.74.91-1.07,1.37,0,0,0,0,0,.02-.48.68-.92,1.37-1.37,2.06-.3.46-.62.94-.94,1.4-.32.46-.66.92-1.02,1.36t0,.02s-.02.02-.03,0c0,.02-.02.02-.02,0h0s0,0-.02,0h0l.02.08h0c-.05.08-.11.15-.16.22h0c-.05.06-.09.12-.14.17-.02.02-.03.03-.05.05h0c-.09.11-.19.22-.29.33-.2.22-.42.44-.65.67-.12.11-.23.22-.35.34-.17.15-.34.31-.51.46l-.02.02c-.55.48-1.15.94-1.76,1.33-.12.08-.24.15-.35.22-.12.08-.24.14-.36.2-.24.12-.47.25-.7.34-.3.13-.6.24-.9.3-.02,0-.03.02-.05.02-.08.02-.15.03-.23.05-.15.04-.31.06-.45.06h-.02c-.09,0-.19,0-.28,0-.1,0-.2,0-.29-.02-.04,0-.07,0-.11-.02-.08,0-.15-.02-.23-.05-.05,0-.1-.02-.15-.03-.02,0-.05-.02-.08-.02.18.08.35.14.53.19h0c.13.04.27.08.4.11.4.09.79.13,1.19.13.69,0,1.37-.12,2.04-.32.4-.12.8-.28,1.19-.46.34-.16.68-.35,1-.55,1-.62,1.91-1.42,2.63-2.26.02-.02.04-.05.05-.06,2.89-.45,6.19-.84,9.48-.56h0l.67.07c.42.05.82.11,1.23.18.07,0,.13.02.19.04.26.05.52.1.78.15.51.11,1.01.24,1.49.39.25.08.49.15.72.24.22.08.45.16.67.25.15.05.3.12.44.18.03,0,.05.02.08.04.32.13.64.29.95.45.15.07.29.15.43.23.22.12.44.25.65.39.33.19.64.42.94.64,0,0,0,0,0,0l.06.06c-.51-.19-1.03-.36-1.56-.52-.06-.02-.13-.04-.19-.05-.02,0-.05-.02-.07-.02-.23-.07-.46-.12-.7-.18-.04,0-.08-.02-.12-.02-.05,0-.09-.02-.14-.03-.52-.12-1.05-.21-1.57-.28-.05,0-.09-.02-.14-.02-.22-.03-.42-.06-.64-.08-.16-.02-.32-.03-.49-.04-.48-.04-.96-.05-1.45-.06h-.15c-.49,0-.96.02-1.43.05-.24.02-.48.04-.71.07-.24.03-.48.07-.71.12-.21.04-.42.08-.62.13-.05,0-.1.02-.15.04-.2.05-.4.1-.6.16-.22.06-.43.13-.65.2-.02,0-.03,0-.05.02-.19.06-.37.13-.55.2-.25.09-.51.2-.76.31-.22.09-.44.19-.65.3-.22.1-.43.21-.64.32-.42.22-.85.45-1.26.69-.43.25-.86.52-1.28.79-.4.26-.79.53-1.18.82-.02,0-.05.02-.06.04-.04.02-.07.04-.09.06-.04.02-.08.05-.12.08-.09.07-.19.14-.29.21.12-.08.23-.16.35-.24.15-.1.32-.2.48-.3.57-.33,1.17-.62,1.79-.87.16-.06.32-.12.48-.18.16-.06.32-.12.49-.17.25-.08.49-.15.74-.22.25-.07.51-.14.77-.2.62-.15,1.26-.28,1.9-.38.25-.05.52-.08.77-.12.41-.05.82-.1,1.22-.15.51-.05,1.02-.09,1.52-.13.8-.05,1.61-.05,2.42,0h0c.77.05,1.55.14,2.31.28.39.07.76.15,1.14.24,1.12.28,2.23.65,3.29,1.12.35.16.69.32,1.03.5l1.14.61h0s.02-1.32.02-1.32c0-.41-.08-.81-.27-1.2-.05-.11-.11-.22-.17-.32-.2-.34-.48-.68-.83-1.01-.06-.07-.13-.12-.2-.18-.15-.13-.3-.25-.46-.38-.67-.5-1.39-.96-2.16-1.36-.38-.19-.77-.39-1.17-.55,0,0,0,0,0,0-.4-.17-.81-.33-1.23-.49-.22-.08-.43-.15-.65-.22-.43-.14-.87-.26-1.32-.37-.05,0-.1-.02-.15-.03-.18-.05-.35-.08-.54-.12-.46-.1-.93-.19-1.41-.26s-.97-.12-1.46-.17c-.29-.02-.57-.05-.86-.05-.25-.02-.51-.03-.76-.03-.75-.02-1.51,0-2.26.02,0,0-.02,0-.02,0-.75.04-1.49.09-2.2.16h-.02c-.48.05-.96.1-1.42.15-.23.03-.46.06-.69.09h0c.06-.08.12-.16.17-.25.06-.08.12-.16.16-.24.08-.11.15-.22.22-.33.12-.18.24-.36.35-.54.06-.08.12-.17.17-.25.14-.22.28-.44.42-.65.19-.31.39-.6.6-.89.22-.33.45-.65.68-.97.29.08.59.15.88.23.45.12.92.25,1.37.39.75.21,1.49.42,2.24.65,1.16.34,2.3.71,3.45,1.08.63.21,1.26.41,1.89.62.76.25,1.51.52,2.26.79,1.15.41,2.29.82,3.43,1.26.72.28,1.44.56,2.16.85l.76.3.29-.78c.18-.49.36-.96.56-1.44.02-.05.04-.09.05-.15.2-.47.4-.94.61-1.4.22-.49.45-.97.69-1.46.23-.49.48-.96.73-1.43.25-.47.5-.93.76-1.39.03-.05.05-.09.08-.14.25-.42.49-.84.74-1.26.28-.46.56-.91.85-1.36.28-.45.59-.89.89-1.33.3-.44.6-.87.92-1.3.31-.43.62-.86.95-1.28.29-.39.58-.77.88-1.14.03-.04.06-.08.09-.12.32-.41.66-.82.99-1.22.34-.4.68-.8,1.02-1.19.34-.39.69-.79,1.04-1.17.69-.78,1.4-1.53,2.12-2.26.26-.28.52-.54.79-.8.39-.39.79-.78,1.19-1.16.39-.38.79-.75,1.19-1.12.26-.25.53-.5.8-.73.35-.32.7-.63,1.06-.94.7-.62,1.4-1.22,2.1-1.8.08-.08.17-.15.25-.22.97-.79,1.93-1.56,2.87-2.29.33-.25.66-.51.99-.75,1.97-1.48,3.87-2.8,5.62-3.97.06-.05.12-.08.19-.12.23-.15.46-.3.69-.45.08-.06.17-.12.25-.16.29-.18.59-.37.86-.55.29-.18.56-.35.84-.52,0,0,0,0,0,0,.62-.39,1.22-.75,1.79-1.09.38-.23.74-.45,1.09-.64.13-.08.26-.15.39-.22.23-.14.45-.26.66-.38.14-.08.28-.16.41-.23.3-.17.58-.32.84-.46.09-.05.19-.1.27-.15.04-.02.08-.04.12-.06.15-.08.29-.16.43-.23.41-.22.74-.4,1.01-.53.11.15.24.33.39.55.03.07.06.13.11.19.05.07.1.14.15.22.05.07.09.15.14.22.19.28.4.6.63.95h0c.23.35.48.74.74,1.15,1.59,2.48,3.8,6.05,6.28,10.42.33.59.67,1.18,1.01,1.79.07.13.15.26.22.39v.02c.22.4.42.73.62,1.13.32.57.65,1.18.99,1.8.13.24.25.49.39.73.39.75.79,1.51,1.2,2.29v.02c.1.18.19.36.29.55.04.06.07.12.1.19.06.12.12.25.19.37.08.15.15.29.23.45.02.04.05.08.06.12.1.19.19.39.29.59.11.22.22.43.32.65.11.22.22.45.32.67.07.14.13.28.2.42.19.39.38.77.56,1.16.32.65.64,1.32.96,1.99.12.25.25.51.36.76.3.64.6,1.29.91,1.95h0c.35.78.71,1.57,1.06,2.36v.02c.43.95.84,1.92,1.24,2.9,0,.02.02.03.02.05.2.45.38.89.57,1.35.07.15.13.31.19.46v.02c.4.99.79,1.97,1.17,2.97.33.86.66,1.73.97,2.6.05.13.11.27.15.4h0c.72,2.03,1.42,4.07,2.06,6.13h0c.11.34.21.67.32,1.01.1.35.19.69.29,1.04.25.82.47,1.62.69,2.43.24.82.46,1.69.67,2.55,0,.04.02.07.02.1,0,.03,0,.05.02.08.05.19.09.38.14.57.13.57.28,1.13.38,1.71.12.49.23.99.32,1.47.05.22.09.44.13.66.08.41.17.82.24,1.22.08.41.15.82.22,1.22.21,1.16.38,2.32.52,3.47.12.89.21,1.79.3,2.69.06.6.11,1.19.14,1.77,0,.19.02.39.03.58.05.43.06.84.06,1.27.02.42.04.85.05,1.27h0c0,.44.02.86.02,1.29v.61c0,.2,0,.4,0,.61l-.02,1.13c0,.42-.02.83-.04,1.25-.02.39-.04.78-.06,1.16-.02.39-.05.77-.07,1.15-.05.75-.12,1.49-.19,2.21,0,.03,0,.06,0,.09-.04.35-.08.69-.12,1.04-.04.37-.08.73-.13,1.09-.05.29-.08.58-.13.87-.05.35-.1.72-.16,1.06-.08.54-.19,1.06-.29,1.59-.05.26-.1.52-.15.78-.07.32-.14.65-.21.96-.11.49-.22.96-.35,1.42-.02.08-.05.17-.07.25,0,.03-.02.05-.02.08-.08.35-.16.69-.22,1.02-.08.39-.15.78-.2,1.16,0,.06-.02.12-.02.18-.02.16-.04.32-.05.48-.02.08-.02.15-.02.22,0,.09,0,.19-.02.29-.02.26-.03.53-.03.79,0,.1-.02.2-.02.3,0,.31,0,.62.03.92,0,.02,0,.05,0,.07,0,.12,0,.23.02.34,0,.02,0,.04,0,.06,0,0,0,0,0,0-1.8.32-3.6.7-5.38,1.12-8.52,2.01-16.75,5.21-24.37,9.5-.32.17-.02.65.27.46,8.99-5.48,19.12-8.99,29.51-10.64h0s0,0,0,0c0,.02,0,.02,0,.04v.02c.02.22.04.42.08.62.02.09.03.18.05.26,0,.05.02.11.02.15.02.1.02.19.05.27.03.16.06.29.1.45h0c.05.25.1.49.16.72.06.23.13.46.2.69.05.11.07.22.11.32.03.09.06.19.1.29,0,.02.02.04.02.06.07.21.15.41.24.62l.14.32c.22.54.47,1.08.69,1.62.02.03.03.07.04.1,0,.02.02.03.02.05t0,0c-8.63.69-17.27,2.6-27.05,5.55-.14.04-.22.19-.18.34.05.14.19.22.34.18,4.65-1.46,9.34-2.8,14.11-3.84,4.24-1.02,8.55-1.68,12.87-2t0,0h0c.29.71.59,1.41.86,2.11.19.46.36.93.53,1.4.05.15.11.28.16.43.19.5.38.99.55,1.49h0c.19.55.38,1.1.56,1.65t0,0c-2.64.12-5.29.34-7.91.67-8.1,1-16.01,3.17-23.67,5.95-.35.13-.12.64.19.51,9.97-4.18,20.72-6.62,31.55-6.6h0c.16.54.34,1.07.5,1.62.19.6.36,1.2.53,1.8.49,1.7.95,3.41,1.36,5.13Z"/>
  <path class="cls-1" d="M158.96,123.5c-7.02,0-12.71,1.86-12.71,6.64,0,.24.02.48.1.69.03.21.12.43.22.64.03.07.06.16.11.22v.02c.12.19.22.37.37.56.13.16.25.32.42.48.45.49,1.02.98,1.68,1.37.21.16.43.29.65.42,2.26,1.31,5.11,2.14,6.79,2.5.21.02.39.06.6.08l1.07,2.09-1.46,1.46-2.75,2.73c-.3.32-.3.83,0,1.13.15.18.37.24.58.24.19,0,.42-.06.55-.24l2.63-2.6.45-.45v2.22c0,.39.32.72.74.72.38,0,.7-.33.7-.72v-2.22l3.47,3.47c.18.15.36.24.57.24.22,0,.42-.09.59-.24.15-.16.21-.37.21-.59,0-.19-.06-.4-.21-.55l-3.16-3.13-1.47-1.46,1.09-2.09c.19-.02.4-.06.59-.08,2.7-.55,8.33-2.41,9.9-5.32v-.02c.05-.06.08-.15.11-.22.12-.21.19-.43.24-.64.07-.21.08-.45.08-.69,0-4.77-5.7-6.64-12.74-6.64ZM154.06,124.96s0,0,0,0c0,0,0,0,0,0ZM152.54,125.28s-.06.02-.09.02c.03,0,.06-.02.09-.02ZM151.76,125.5s-.06.02-.09.03c.03,0,.06-.02.09-.03ZM151.05,125.75s-.05.02-.08.03c.02,0,.05-.02.08-.03ZM150.37,126.04s-.09.04-.14.07c.05-.02.09-.04.14-.07ZM149.68,126.4s-.06.04-.09.05c.03-.02.06-.04.09-.05ZM149.14,126.76s-.08.05-.11.08c.04-.03.08-.06.11-.08ZM148.6,127.21s-.07.07-.11.11c.04-.04.07-.08.11-.11ZM148.14,127.72s-.05.07-.08.1c.02-.02.03-.04.04-.06.01-.01.02-.03.03-.04ZM147.84,128.18c-.04.06-.07.13-.1.19.03-.06.07-.13.1-.19ZM147.54,128.83s-.01.04-.02.06c0-.01,0-.03.01-.05,0,0,0-.01,0-.02ZM147.4,130.57v-.03c-.05-.13-.07-.25-.07-.4,0-.09.02-.16.02-.25,0,.08-.01.16-.01.25,0,.14.02.27.06.4v.03c.04.14.1.27.17.4-.07-.13-.13-.27-.17-.4ZM147.41,129.33c-.02.09-.03.19-.05.29.01-.1.03-.19.05-.29ZM158.4,135.13c-3.45-.48-6.91-1.38-9.02-2.57,2.11,1.19,5.57,2.09,9.02,2.57l.16.03-.16-.03ZM159.55,135.13l-.12.02.12-.02c2.75-.38,5.5-1.03,7.58-1.88-2.08.85-4.83,1.5-7.58,1.88Z"/>
</svg>