<?xml version="1.0" encoding="UTF-8"?>
<svg id="Layer_1" data-name="Layer 1" xmlns="http://www.w3.org/2000/svg" viewBox="0 0 272.62 170.99">
  <defs>
    <style>
      .cls-1 {
        fill: #fff;
      }
    </style>
  </defs>
  <path class="cls-1" d="M237.5,156.44c-22.49,16.25-54.36,19.74-78.59,6.11,32.47,4.06,63.94-10.62,78.33-39.39,9.44-18.79,9.43-41.85-.51-60.31-8.55-16.36-24.31-28.42-42.28-32.61-2.04-.48-4.12-.86-6.23-1.13-10.47-1.29-20.33-.25-29.31,2.65-33.4,10.71-54.43,47.05-47.84,84.75-.47-.76-.92-1.54-1.35-2.32-8.26-14.91-10.3-33.46-6.57-50.18C118.17-.35,198.87-21.04,245.79,24.49c38.52,36.49,35.4,101.14-8.29,131.95Z"/>
  <path class="cls-1" d="M161.59,54.57s-.02-.06-.05-.09v.04c5.88,33.69-10.29,66.25-37.62,80.45,8.81-15.76,12.46-34.26,13.29-52.12-2.54,11.79-6.72,23.31-12.39,33.86-2.06,3.76-4.38,7.45-6.98,10.9-7.77,10.29-20.45,15.86-33.25,14.31-.06,0-.13-.02-.19-.02-1.78-.22-3.54-.53-5.28-.91-18.36-3.99-34.52-16.18-43.22-32.84-9.93-18.46-9.95-41.52-.52-60.3C49.78,19.07,81.23,4.38,113.72,8.44,89.49-5.2,57.62-1.7,35.13,14.54-8.56,45.37-11.69,110.02,26.83,146.51c46.93,45.52,127.63,24.84,142.63-39.51,3.92-17.56,1.46-37.16-7.87-52.42Z"/>
</svg>