<?xml version="1.0" encoding="UTF-8"?>
<svg id="Layer_1" xmlns="http://www.w3.org/2000/svg" version="1.1" viewBox="0 0 741.3 616.24">
  <!-- Generator: Adobe Illustrator 29.5.1, SVG Export Plug-In . SVG Version: 2.1.0 Build 141)  -->
  <defs>
    <style>
      .st0 {
        fill: #004e7c;
      }

      .st1 {
        fill: #a7d08b;
      }
    </style>
  </defs>
  <path class="st0" d="M307.58,263.32v-63.55c0-12.38-4.92-24.25-13.67-33l-29.96-29.96c-6.29-6.29-14.82-9.83-23.72-9.83h-81.79c-18.53,0-33.54,15.02-33.54,33.54v79.48c0,8.9,3.53,17.43,9.83,23.72l31.06,31.06c8.52,8.52,20.08,13.31,32.13,13.31h64.87c24.74,0,44.79-20.05,44.79-44.79v.02Z"/>
  <path class="st1" d="M616.4,489.26h-242.27c-8.9,0-17.43-3.53-23.72-9.83l-29.31-29.31c-8.65-8.65-13.51-20.38-13.51-32.61v-64.59c0-24.74,20.05-44.79,44.79-44.79h63.95c12.11,0,23.72,4.81,32.29,13.37l167.68,167.66.1.1h0Z"/>
  <path class="st0" d="M490.27,160.54v114.04c0,18.53-15.02,33.54-33.54,33.54h-2.57c-12.11,0-23.73-4.81-32.29-13.38l-100.62-100.64c-8.75-8.75-13.66-20.62-13.66-32.99v-.57c0-18.53,15.02-33.55,33.54-33.55h115.59c18.53,0,33.54,15.02,33.54,33.54h0Z"/>
  <path class="st0" d="M307.58,455.7h0c0-12.23-4.86-23.96-13.51-32.61l-101.67-101.67c-8.52-8.52-20.08-13.31-32.13-13.31h-1.83c-18.53,0-33.54,15.02-33.54,33.54v114.04c0,18.53,15.02,33.54,33.54,33.54h115.6c18.53,0,33.54-15.02,33.54-33.54h0Z"/>
</svg>