<?xml version="1.0" encoding="UTF-8"?>
<svg id="Layer_1" data-name="Layer 1" xmlns="http://www.w3.org/2000/svg" viewBox="0 0 738.35 245.87">
  <defs>
    <style>
      .cls-1 {
        fill: #fff;
      }

      .cls-2 {
        fill: none;
        stroke: #fff;
        stroke-miterlimit: 10;
        stroke-width: 3px;
      }
    </style>
  </defs>
  <path class="cls-2" d="M729.58,70.04l-14.11-1.58c-.7-.08-1.38-.02-2.03.15-.48.13-.98.08-1.42-.14-.67-.33-1.38-.55-2.12-.63l-15.5-1.74c-.69-.08-1.35-.04-2,.09-.41.09-.84.05-1.22-.12-.66-.29-1.36-.48-2.07-.56l-5.02-.56c-8.41-.94-15.51,1.69-20.94,7.94-3.24,3.71-10.96,3.21-14.1-1.03-6.96-9.4-16.6-14.97-28.94-16.4s-22.58,2.41-31.59,11.54l-.04.04c-2.14,2.17-5.72,2.09-7.67-.26-1.23-1.47-2.54-2.9-3.94-4.29-9.17-9.07-20.26-14.51-33.15-16.02-6.94-.81-13.6-.42-19.93,1.18-7.57,1.92-15.48,1.02-22.59-2.22-1.88-.85-3.91-1.43-6.05-1.67l-10.25-1.15c-17.4-1.95-32.29,1.36-43.82,10.12-1.84,1.39-3.52,2.83-5.07,4.33-1.33,1.29-3.55.32-3.55-1.53h0c0-10.38-9.88-19.9-22.44-21.31l-45.35-5.08c-3.01-.34-5.92-.26-8.64.17-.36.06-.71.02-1.05-.11-2.76-1.06-5.76-1.8-8.89-2.15l-53.88-6.04c-12.22-1.37-23.08,2.48-28.56,9.33-1.95,2.43-5.49,2.9-8.09,1.19-22.42-14.78-50.69-24.47-85.14-28.48-21.29-2.48-43.16-2.02-64.96,1.57-22.98,3.78-43.16,10.57-59.55,20.25C16.83,41.96,1.5,66.11,1.5,95.99v123.83c0,16.66,24.55,27.3,53.43,23.94l86.51-10.09c23.29-2.72,41.38-16.19,41.38-30.21v-5.35c0-7.31,5.29-13.54,12.51-14.75,27.55-4.65,50.71-14.3,69.6-28.51.51-.38,1.01-.76,1.5-1.15,5.09-3.95,12.23-3.83,17.23.24l.09.07c19.13,15.48,44.2,22.27,71.65,20.26,11.96-.87,22.95-3.48,32.75-7.63,7.77-3.29,16.44-3.15,24.2.15,3.39,1.44,7.3,2.12,11.44,1.83l5.67-.41c17.64-1.27,30.9-4.86,40.93-10.87.04-.03.09-.05.13-.08,4.7-2.86,9.73-6.72,14.31-11.88,4.4-4.97,12-5.34,16.87-.83l.11.1c12.02,11.09,26.29,15.96,42.14,14.83,14.32-1.02,26.16-6.78,35.45-16.91.34-.37.67-.74,1-1.12,2.1-2.41,5.83-2.46,8.03-.15l.05.05c8.94,9.36,19.76,13.54,31.93,12.67,2.13-.15,4.43-.57,6.82-1.23h.02c.35-.1.75-.2,1.18-.3,2.62-.59,5.31-.82,8-.77,5.4.1,17.24.31,18.7.2l2.62-.19c8.25-.59,14.52-2.86,19.33-6.88.02-.02.04-.04.06-.05,2.35-2,4.9-4.76,7.19-8.53,1.75-2.87,5.9-2.92,7.69-.07l.05.07c5.35,8.44,12.53,12.49,20.63,11.9,6.94-.51,12.96-4.63,17.5-11.82,4.44-7.03,6.65-15.47,6.65-25.19v-29.53c0-5.95-3.22-11.13-7.26-11.58h-.01Z"/>
  <g>
    <path class="cls-1" d="M240.49,52.72c-18-13.28-41.12-21.37-70.09-23.98-15.24-1.37-30.56-.61-45.96,2.37-15.88,3.08-29.34,8.02-40.17,14.86-19.38,12.21-29.34,29.31-29.34,50.97v118.05l86.51-7.81h.01v-106.86c0-17.33,10.12-25.57,29.76-24.74,7.95.33,14.68,2.34,20.22,6,5.48,3.62,8.2,7.83,8.2,12.67s-2.62,8.99-7.91,12.47c-5.35,3.52-11.84,5.28-19.51,5.24-6.17-.03-12.43-1.64-18.76-4.86v53.17c9.06.2,15.82.19,20.36,0,26.89-1.2,48.99-8.36,66.86-21.13,17.19-12.28,25.54-25.88,25.54-42.5s-7.72-30.63-25.72-43.91Z"/>
    <path class="cls-1" d="M364.66,106.9c0,5.76-3.02,8.62-9.12,8.62-6.29-.01-9.47-2.96-9.47-8.85v-58.54l-53.88-4.62h0v58.39c0,15.91,5.14,28.26,15.25,36.89,12.66,10.76,28.79,15.55,47.96,14.66,16.1-.75,29.2-5.77,39.57-14.88,10.1-8.87,15.04-19.4,15.04-31.77v-53.19l-45.35-3.89v57.18Z"/>
    <path class="cls-1" d="M455.56,67.1c-4.25,3.36-7.1,6.89-8.5,10.56-1.41,3.69-2.4,10.17-2.95,19.45-.41,5.71-1.96,9.69-4.65,11.95-2.71,2.27-7.29,3.4-13.79,3.35h-1.87v37.17l5.67-.26c13.66-.63,23.86-2.96,30.87-6.94,12.83-7.42,19.88-19.38,21.5-36.02.5-5,1.65-8.31,3.47-9.95,1.8-1.62,5.09-2.35,9.83-2.19v-33.32h.02s-10.25-.89-10.25-.89c-12.2-1.04-22.06,1.28-29.35,7.09Z"/>
    <path class="cls-1" d="M554.7,106.27c-1.98,5.67-5.33,8.51-10.12,8.5-3.33-.01-6.13-1.17-8.39-3.51-2.28-2.36-3.43-5.32-3.43-8.72s1.08-6.18,3.23-8.33c2.13-2.14,4.85-3.13,8.12-2.99,3.79.16,6.89,1.94,9.32,5.32l26.77-.12c-1.58-9.04-5.64-16.7-12.27-23.04-6.79-6.49-14.83-10.2-24.21-11.05-11.11-1-20.97,2.16-29.43,9.66-8.7,7.71-13.14,16.92-13.14,29.32s4.4,22.83,13.01,31.1c8.38,8.05,18.37,11.73,29.78,11.22,10.4-.47,18.96-4.37,25.8-11.57,6.69-7.03,10.33-15.79,11.05-26.36l-26.12.57h.03Z"/>
    <polygon class="cls-1" points="625.24 113.24 625.24 113.27 625.25 113.27 625.24 113.24"/>
    <path class="cls-1" d="M620.11,69.28c-8.57-.77-16.06,2.1-22.38,8.74-6.47,6.8-9.76,15.21-9.76,25.99s3.26,19.7,9.67,26.65c6.26,6.79,13.89,9.92,22.76,9.52,1.47-.07,3.08-.32,4.84-.76v-26.15c-1.6,1.16-3.34,1.73-5.24,1.73-2.34-.01-4.29-.93-5.83-2.78-1.55-1.86-2.33-4.23-2.33-7.1s.86-5.06,2.57-6.99c1.7-1.92,3.7-2.82,6-2.73,2.51.1,4.49,1.24,5.95,3.41,1.45,2.16,2.18,5,2.18,8.54v31.05l20.26-.86v-31.58c0-10.55-2.43-19.01-7.37-25.49-5.04-6.6-12.09-10.36-21.32-11.19Z"/>
    <path class="cls-1" d="M669.98,82.51c-2.02,2.38-3.36,4.84-4.02,7.38-.67,2.54-1.13,6.99-1.39,13.36-.19,3.92-.92,6.65-2.18,8.2-1.27,1.56-3.4,2.33-6.41,2.31h-.86v25.25l2.62-.12c6.37-.29,11.18-1.79,14.51-4.48,6.15-5.05,9.56-13.34,10.35-24.94.24-3.49.81-5.81,1.69-6.96.88-1.15,2.49-1.68,4.82-1.6v-23.37l-5.01-.43c-5.92-.51-10.65,1.27-14.12,5.4Z"/>
    <polygon class="cls-1" points="689.11 77.53 689.11 77.53 689.12 77.53 689.11 77.53"/>
    <path class="cls-1" d="M715.47,79.79v31.47c0,3.17-.87,4.76-2.75,4.75s-2.82-1.61-2.82-4.82v-31.88l-15.5-1.33h.01v30.85c0,8.41,1.44,14.95,4.29,19.59,3.62,5.86,8.31,8.62,13.99,8.35,4.87-.23,8.9-2.87,12.13-7.87,3.19-4.92,4.76-10.85,4.76-17.84v-30.06l-14.11-1.21Z"/>
  </g>
</svg>